<?xml version="1.0" encoding="UTF-8"?>
<svg width="48px" height="42px" viewBox="0 0 48 42" version="1.1" xmlns="http://www.w3.org/2000/svg" xmlns:xlink="http://www.w3.org/1999/xlink">
    <!-- Generator: Sketch 52.4 (67378) - http://www.bohemiancoding.com/sketch -->
    <title>baby</title>
    <desc>Created with Sketch.</desc>
    <g id="Page-1" stroke="none" stroke-width="1" fill="none" fill-rule="evenodd">
        <g id="baby" fill="#111111" fill-rule="nonzero">
            <path d="M9,15 L1.5,15 C0.671572875,15 0,14.3284271 0,13.5 L0,1.5 C0,0.671572875 0.671572875,0 1.5,0 L16.65,0 C17.3633645,0 17.9780423,0.502406575 18.12,1.20150377 C18.687831,3.99789254 21.1465421,6.00751884 24,6.00751884 C26.8534579,6.00751884 29.312169,3.99789254 29.88,1.20150377 C30.0219577,0.502406575 30.6366355,0 31.35,0 L46.5,0 C47.3284271,0 48,0.671572875 48,1.5 L48,13.5 C48,14.3284271 47.3284271,15 46.5,15 L39,15 L39,31.5 C39,32.3284271 38.3284271,33 37.5,33 C33.3578644,33 30,36.3578644 30,40.5 C30,41.3284271 29.3284271,42 28.5,42 L19.5,42 C18.6715729,42 18,41.3284271 18,40.5 C18,36.3578644 14.6421356,33 10.5,33 C9.67157288,33 9,32.3284271 9,31.5 L9,15 Z M24,9.00751884 C20.140727,9.00751884 16.7628422,6.55680787 15.5114364,3 L3,3 L3,12 L10.5,12 C11.3284271,12 12,12.6715729 12,13.5 L12,30.1063333 C16.5985367,30.7641024 20.2358976,34.4014633 20.8936667,39 L27.1063333,39 C27.7641024,34.4014633 31.4014633,30.7641024 36,30.1063333 L36,13.5 C36,12.6715729 36.6715729,12 37.5,12 L45,12 L45,3 L32.4885636,3 C31.2371578,6.55680787 27.859273,9.00751884 24,9.00751884 Z" id="Path"></path>
        </g>
    </g>
</svg>