<?xml version="1.0" encoding="UTF-8"?>
<svg width="46px" height="46px" viewBox="0 0 46 46" version="1.1" xmlns="http://www.w3.org/2000/svg" xmlns:xlink="http://www.w3.org/1999/xlink">
    <!-- Generator: Sketch 52.4 (67378) - http://www.bohemiancoding.com/sketch -->
    <title>basket-simple</title>
    <desc>Created with Sketch.</desc>
    <g id="Page-1" stroke="none" stroke-width="1" fill="none" fill-rule="evenodd">
        <g id="basket-simple" fill="#111111">
            <path d="M34.2765752,42.3529412 L41.8059871,19.7647059 L3.3704836,19.7647059 L10.8998954,42.3529412 L34.2765752,42.3529412 Z M35.2941176,45.1764706 L9.88235294,45.1764706 C9.27468649,45.1764706 8.73519634,44.7876282 8.54303534,44.2111451 L0.0724471087,18.7993804 C-0.232273415,17.8852188 0.448153799,16.9411765 1.41176471,16.9411765 L43.7647059,16.9411765 C44.7283169,16.9411765 45.408744,17.8852188 45.1040233,18.7993804 L36.6334351,44.2111451 C36.4412742,44.7876282 35.9017841,45.1764706 35.2941176,45.1764706 Z" id="Path" fill-rule="nonzero"></path>
            <path d="M11.1450737,13.3372427 C10.796383,14.0346241 9.94837398,14.3172938 9.25099256,13.9686031 C8.55361115,13.6199124 8.2709415,12.7719034 8.61963219,12.074522 L14.266691,0.780404335 C14.6153817,0.0830229275 15.4633907,-0.199646739 16.1607721,0.149043966 C16.8581536,0.49773467 17.1408232,1.34574367 16.7921325,2.04312508 L11.1450737,13.3372427 Z" id="Path"></path>
            <path d="M36.5568384,12.074522 C36.905529,12.7719034 36.6228593,13.6199124 35.925478,13.9686031 C35.2280965,14.3172938 34.3800875,14.0346241 34.0313969,13.3372427 L28.3843381,2.04312508 C28.0356474,1.34574367 28.3183172,0.49773467 29.0156984,0.149043966 C29.71308,-0.199646739 30.5610889,0.0830229275 30.9097796,0.780404335 L36.5568384,12.074522 Z" id="Path"></path>
        </g>
    </g>
</svg>