<?xml version="1.0" encoding="UTF-8"?>
<svg width="48px" height="42px" viewBox="0 0 48 42" version="1.1" xmlns="http://www.w3.org/2000/svg" xmlns:xlink="http://www.w3.org/1999/xlink">
    <!-- Generator: Sketch 52.4 (67378) - http://www.bohemiancoding.com/sketch -->
    <title>camera-18</title>
    <desc>Created with Sketch.</desc>
    <g id="Page-1" stroke="none" stroke-width="1" fill="none" fill-rule="evenodd">
        <g id="camera-18" fill="#111111">
            <path d="M27,36 C20.372583,36 15,30.627417 15,24 C15,17.372583 20.372583,12 27,12 C33.627417,12 39,17.372583 39,24 C39,30.627417 33.627417,36 27,36 Z M27,33 C31.9705626,33 36,28.9705627 36,24 C36,19.0294373 31.9705626,15 27,15 C22.0294373,15 18,19.0294373 18,24 C18,28.9705627 22.0294373,33 27,33 Z" id="Oval" fill-rule="nonzero"></path>
            <path d="M7.5,15 C6.67157289,15 6,14.3284271 6,13.5 C6,12.6715729 6.67157289,12 7.5,12 L10.5,12 C11.3284271,12 12,12.6715729 12,13.5 C12,14.3284271 11.3284271,15 10.5,15 L7.5,15 Z" id="Path"></path>
            <path d="M38.427051,6 L43.5,6 C45.9844272,6 48,8.01557289 48,10.5 L48,37.5 C48,39.9844272 45.9844272,42 43.5,42 L4.5,42 C2.01557288,42 0,39.9844272 0,37.5 L0,10.5 C0,8.01557289 2.01557288,6 4.5,6 L15.572949,6 L18.1583592,0.829179606 C18.4124472,0.321003564 18.9318419,0 19.5,0 L34.5,0 C35.068158,0 35.5875528,0.321003564 35.8416408,0.829179606 L38.427051,6 Z M20.427051,3 L17.8416408,8.1708204 C17.5875528,8.67899643 17.0681581,9 16.5,9 L4.5,9 C3.67242711,9 3,9.67242711 3,10.5 L3,37.5 C3,38.3275728 3.67242711,39 4.5,39 L43.5,39 C44.3275728,39 45,38.3275728 45,37.5 L45,10.5 C45,9.67242711 44.3275728,9 43.5,9 L37.5,9 C36.931842,9 36.4124472,8.67899643 36.1583592,8.1708204 L33.572949,3 L20.427051,3 Z" id="Path" fill-rule="nonzero"></path>
        </g>
    </g>
</svg>