<?xml version="1.0" encoding="UTF-8"?>
<svg width="48px" height="48px" viewBox="0 0 48 48" version="1.1" xmlns="http://www.w3.org/2000/svg" xmlns:xlink="http://www.w3.org/1999/xlink">
    <!-- Generator: Sketch 52.4 (67378) - http://www.bohemiancoding.com/sketch -->
    <title>chat-33</title>
    <desc>Created with Sketch.</desc>
    <g id="Page-1" stroke="none" stroke-width="1" fill="none" fill-rule="evenodd">
        <g id="chat-33" fill="#111111">
            <path d="M0,16.5 C0,7.32126204 8.78470536,0 19.5,0 C30.2152947,0 39,7.32126204 39,16.5 C39,25.678738 30.2152947,33 19.5,33 C17.0735166,33 14.705523,32.619516 12.4797159,31.8895251 L5.40007461,37.1999439 C4.41123198,37.941672 3,37.236111 3,36 L3,25.2967068 C1.05607334,22.6888918 0,19.6622079 0,16.5 Z M6,32.9997669 L11.3189254,29.010056 C11.7268094,28.7041033 12.2621808,28.6262981 12.7402802,28.8034912 C14.8570235,29.5879985 17.1438079,30 19.5,30 C28.6670477,30 36,23.8886436 36,16.5 C36,9.11135643 28.6670477,3 19.5,3 C10.3329523,3 3,9.11135643 3,16.5 C3,19.1370946 3.93362337,21.6679027 5.67317958,23.8513077 C5.88477882,24.1168966 6,24.4464242 6,24.786 L6,32.9997669 Z" id="Path" fill-rule="nonzero"></path>
            <path d="M28.5,43.5 C23.2554968,43.5 18.3263375,41.74074 14.6871449,38.6562819 C14.0551754,38.1206457 13.9770819,37.1741142 14.5127181,36.542145 C15.0483543,35.9101755 15.9948856,35.8320819 16.6268551,36.3677181 C19.7168678,38.9867097 23.9568604,40.5 28.5,40.5 C30.6252069,40.5 32.70546,40.159263 34.6737732,39.5079405 C35.1120474,39.3629139 35.5926885,39.4277754 35.9768433,39.6837867 L42,43.6977825 L42,35.286 C42,34.9464243 42.1152213,34.6168965 42.3268203,34.3513077 C44.0671821,32.1668919 45,29.6389484 45,27 C45,24.6469557 44.2618065,22.3802275 42.8695908,20.3686402 C42.3981384,19.6874471 42.5681667,18.7530432 43.2493599,18.2815907 C43.9305528,17.8101383 44.8649568,17.9801667 45.3364092,18.6613598 C47.068878,21.1645726 48,24.023715 48,27 C48,30.1641186 46.9445661,33.1883427 45,35.7967308 L45,46.5 C45,47.6979306 43.6650051,48.4125405 42.6681567,47.7482133 L34.9089516,42.5772675 C32.8504458,43.1841264 30.6952776,43.5 28.5,43.5 Z" id="Path"></path>
        </g>
    </g>
</svg>