<?xml version="1.0" encoding="UTF-8"?>
<svg width="48px" height="48px" viewBox="0 0 48 48" version="1.1" xmlns="http://www.w3.org/2000/svg" xmlns:xlink="http://www.w3.org/1999/xlink">
    <!-- Generator: Sketch 52.4 (67378) - http://www.bohemiancoding.com/sketch -->
    <title>circle-10</title>
    <desc>Created with Sketch.</desc>
    <g id="Page-1" stroke="none" stroke-width="1" fill="none" fill-rule="evenodd">
        <g id="circle-10" fill="#111111" fill-rule="nonzero">
            <path d="M24,12 C20.6862915,12 18,14.6862915 18,18 L18,21 C18,24.3137085 20.6862915,27 24,27 C27.3137085,27 30,24.3137085 30,21 L30,18 C30,14.6862915 27.3137085,12 24,12 Z M24,9 C28.9705627,9 33,13.0294373 33,18 L33,21 C33,25.9705627 28.9705627,30 24,30 C19.0294373,30 15,25.9705627 15,21 L15,18 C15,13.0294373 19.0294373,9 24,9 Z" id="Rectangle"></path>
            <path d="M41.7702045,39.2681599 C41.893828,40.0873111 41.3299913,40.851581 40.5108401,40.9752045 C39.6916889,41.098828 38.927419,40.5349913 38.8037955,39.7158401 C38.3061738,36.4185099 36.7207848,33.382087 34.2995731,31.089109 C33.6980748,30.5194677 33.6722496,29.5700714 34.241891,28.9685731 C34.8115323,28.3670748 35.7609286,28.3412496 36.3624269,28.910891 C39.2693381,31.6638444 41.172759,35.3093793 41.7702045,39.2681599 Z" id="Path"></path>
            <path d="M11.6444822,28.9100307 C12.2464556,28.3408915 13.19583,28.3675088 13.7649693,28.9694822 C14.3341085,29.5714556 14.3074912,30.52083 13.7055178,31.0899693 C11.2807599,33.3824709 9.69237839,36.4200706 9.19311584,39.7194269 C9.0691683,40.5385291 8.30467539,41.1020634 7.48557313,40.9781158 C6.66647087,40.8541683 6.10293663,40.0896754 6.22688416,39.2705731 C6.82629969,35.30936 8.73331339,31.6624124 11.6444822,28.9100307 Z" id="Path"></path>
            <path d="M24,48 C10.745166,48 0,37.254834 0,24 C0,10.745166 10.745166,0 24,0 C37.254834,0 48,10.745166 48,24 C48,37.254834 37.254834,48 24,48 Z M24,45 C35.5979797,45 45,35.5979797 45,24 C45,12.4020203 35.5979797,3 24,3 C12.4020203,3 3,12.4020203 3,24 C3,35.5979797 12.4020203,45 24,45 Z" id="Oval"></path>
        </g>
    </g>
</svg>