<?xml version="1.0" encoding="UTF-8"?>
<svg width="48px" height="48px" viewBox="0 0 48 48" version="1.1" xmlns="http://www.w3.org/2000/svg" xmlns:xlink="http://www.w3.org/1999/xlink">
    <!-- Generator: Sketch 52.4 (67378) - http://www.bohemiancoding.com/sketch -->
    <title>preferences-circle-rotate</title>
    <desc>Created with Sketch.</desc>
    <g id="Page-1" stroke="none" stroke-width="1" fill="none" fill-rule="evenodd">
        <g id="preferences-circle-rotate" fill="#111111" fill-rule="nonzero">
            <path d="M12,13.5 C12,14.3284271 11.3284271,15 10.5,15 C9.67157288,15 9,14.3284271 9,13.5 L9,1.5 C9,0.671572875 9.67157288,0 10.5,0 C11.3284271,0 12,0.671572875 12,1.5 L12,13.5 Z" id="Path"></path>
            <path d="M12,46.5 C12,47.3284271 11.3284271,48 10.5,48 C9.67157288,48 9,47.3284271 9,46.5 L9,40.5 C9,39.6715729 9.67157288,39 10.5,39 C11.3284271,39 12,39.6715729 12,40.5 L12,46.5 Z" id="Path"></path>
            <path d="M36,34.5 C36,33.6715729 36.6715729,33 37.5,33 C38.3284271,33 39,33.6715729 39,34.5 L39,46.5 C39,47.3284271 38.3284271,48 37.5,48 C36.6715729,48 36,47.3284271 36,46.5 L36,34.5 Z" id="Path"></path>
            <path d="M36,1.5 C36,0.671572875 36.6715729,0 37.5,0 C38.3284271,0 39,0.671572875 39,1.5 L39,7.5 C39,8.32842712 38.3284271,9 37.5,9 C36.6715729,9 36,8.32842712 36,7.5 L36,1.5 Z" id="Path"></path>
            <path d="M10.5,42 C4.70101013,42 0,37.2989899 0,31.5 C0,25.7010101 4.70101013,21 10.5,21 C16.2989899,21 21,25.7010101 21,31.5 C21,37.2989899 16.2989899,42 10.5,42 Z M10.5,39 C14.6421356,39 18,35.6421356 18,31.5 C18,27.3578644 14.6421356,24 10.5,24 C6.35786438,24 3,27.3578644 3,31.5 C3,35.6421356 6.35786438,39 10.5,39 Z" id="Oval"></path>
            <path d="M37.5,27 C31.7010101,27 27,22.2989899 27,16.5 C27,10.7010101 31.7010101,6 37.5,6 C43.2989899,6 48,10.7010101 48,16.5 C48,22.2989899 43.2989899,27 37.5,27 Z M37.5,24 C41.6421356,24 45,20.6421356 45,16.5 C45,12.3578644 41.6421356,9 37.5,9 C33.3578644,9 30,12.3578644 30,16.5 C30,20.6421356 33.3578644,24 37.5,24 Z" id="Oval"></path>
        </g>
    </g>
</svg>