<?xml version="1.0" encoding="UTF-8"?>
<svg width="47px" height="46px" viewBox="0 0 47 46" version="1.1" xmlns="http://www.w3.org/2000/svg" xmlns:xlink="http://www.w3.org/1999/xlink">
    <!-- Generator: Sketch 52.4 (67378) - http://www.bohemiancoding.com/sketch -->
    <title>shape-star</title>
    <desc>Created with Sketch.</desc>
    <g id="Page-1" stroke="none" stroke-width="1" fill="none" fill-rule="evenodd">
        <g id="shape-star" transform="translate(-1.000000, 0.000000)" fill="#111111" fill-rule="nonzero">
            <path d="M24.4892607,5.14828419 L18.9951644,16.2786882 C18.7811321,16.7122928 18.3674551,17.0128266 17.8889284,17.0823616 L5.60756128,18.8669756 L14.4951351,27.5293975 C14.8414346,27.8669241 14.9994783,28.3532387 14.9177635,28.8298626 L12.8201778,41.0645939 L23.8054889,35.288714 C24.2335554,35.0636442 24.744966,35.0636442 25.1730325,35.288714 L36.1583436,41.0645939 L34.0607578,28.8298626 C33.9790431,28.3532387 34.1370867,27.8669241 34.4833863,27.5293975 L43.37096,18.8669756 L31.089593,17.0823616 C30.6110664,17.0128266 30.1973893,16.7122928 29.983357,16.2786882 L24.4892607,5.14828419 Z M16.7020015,14.2853978 L23.1717406,1.17845443 C23.7107277,0.0865287961 25.2677937,0.0865287961 25.8067808,1.17845443 L32.2765198,14.2853978 L46.7398559,16.3870751 C47.9450254,16.5621991 48.4262112,18.0432611 47.5541018,18.8932771 L37.0876001,29.0946274 L39.5577134,43.5022261 C39.763493,44.702492 38.5036543,45.6177164 37.4257833,45.0509911 L24.4892607,38.2491992 L11.5527382,45.0509911 C10.4748672,45.6177164 9.21502825,44.702492 9.42080806,43.5022261 L11.8909214,29.0946274 L1.42441963,18.8932771 C0.552310261,18.0432611 1.03349593,16.5621991 2.23866539,16.3870751 L16.7020015,14.2853978 Z" id="Path"></path>
        </g>
    </g>
</svg>