<?xml version="1.0" encoding="UTF-8"?>
<svg width="48px" height="48px" viewBox="0 0 48 48" version="1.1" xmlns="http://www.w3.org/2000/svg" xmlns:xlink="http://www.w3.org/1999/xlink">
    <!-- Generator: Sketch 52.4 (67378) - http://www.bohemiancoding.com/sketch -->
    <title>shop</title>
    <desc>Created with Sketch.</desc>
    <g id="Page-1" stroke="none" stroke-width="1" fill="none" fill-rule="evenodd">
        <g id="shop" fill="#111111" fill-rule="nonzero">
            <path d="M9,24 C4.02857288,24 0,19.9714271 0,15 C0,14.7450836 0.0649657512,14.4943726 0.188764086,14.2715356 L7.68876409,0.771535603 C7.95331841,0.295337825 8.45524931,0 9,0 L39,0 C39.5447507,0 40.0466816,0.295337825 40.3112359,0.771535603 L47.8112359,14.2715356 C47.9350342,14.4943726 48,14.7450836 48,15 C48,19.9714271 43.9714271,24 39,24 C35.8691444,24 33.1122344,22.4022267 31.5,19.9774101 C29.8877656,22.4022267 27.1308556,24 24,24 C20.8691444,24 18.1122344,22.4022267 16.5,19.9774101 C14.8877656,22.4022267 12.1308556,24 9,24 Z M9.88260502,3 L3.01113125,15.3686528 C3.20147634,18.5114254 5.80922475,21 9,21 C12.3145729,21 15,18.3145729 15,15 C15,13 18,13 18,15 C18,18.3145729 20.6854271,21 24,21 C27.3145729,21 30,18.3145729 30,15 C30,13 33,13 33,15 C33,18.3145729 35.6854271,21 39,21 C42.1907753,21 44.7985237,18.5114254 44.9888687,15.3686528 L38.117395,3 L9.88260502,3 Z" id="Path"></path>
            <path d="M39,45 L39,28.5 C39,27.6715729 39.6715729,27 40.5,27 C41.3284271,27 42,27.6715729 42,28.5 L42,46.5 C42,47.3284271 41.3284271,48 40.5,48 L7.5,48 C6.67157288,48 6,47.3284271 6,46.5 L6,28.5 C6,27.6715729 6.67157288,27 7.5,27 C8.32842712,27 9,27.6715729 9,28.5 L9,45 L39,45 Z" id="Path"></path>
            <path d="M21,36 L21,46.5 C21,47.3284271 20.3284271,48 19.5,48 C18.6715729,48 18,47.3284271 18,46.5 L18,34.5 C18,33.6715729 18.6715729,33 19.5,33 L28.5,33 C29.3284271,33 30,33.6715729 30,34.5 L30,46.5 C30,47.3284271 29.3284271,48 28.5,48 C27.6715729,48 27,47.3284271 27,46.5 L27,36 L21,36 Z" id="Path"></path>
        </g>
    </g>
</svg>