<?xml version="1.0" encoding="UTF-8"?>
<svg width="48px" height="48px" viewBox="0 0 48 48" version="1.1" xmlns="http://www.w3.org/2000/svg" xmlns:xlink="http://www.w3.org/1999/xlink">
    <!-- Generator: Sketch 52.4 (67378) - http://www.bohemiancoding.com/sketch -->
    <title>zoom-split</title>
    <desc>Created with Sketch.</desc>
    <g id="Page-1" stroke="none" stroke-width="1" fill="none" fill-rule="evenodd">
        <g id="zoom-split" fill="#111111">
            <path d="M47.5606602,45.4393398 C48.1464465,46.0251264 48.1464465,46.9748736 47.5606602,47.5606602 C46.9748736,48.1464465 46.0251264,48.1464465 45.4393398,47.5606602 L36.4393398,38.5606602 C35.8535535,37.9748736 35.8535535,37.0251264 36.4393398,36.4393398 C37.0251264,35.8535535 37.9748736,35.8535535 38.5606602,36.4393398 L47.5606602,45.4393398 Z" id="Path"></path>
            <path d="M19.5,39 C8.73044739,39 0,30.2695527 0,19.5 C0,8.73044739 8.73044739,0 19.5,0 C30.2695527,0 39,8.73044739 39,19.5 C39,30.2695527 30.2695527,39 19.5,39 Z M19.5,36 C28.6126984,36 36,28.6126984 36,19.5 C36,10.3873016 28.6126984,3 19.5,3 C10.3873016,3 3,10.3873016 3,19.5 C3,28.6126984 10.3873016,36 19.5,36 Z" id="Oval" fill-rule="nonzero"></path>
        </g>
    </g>
</svg>